<svg width="16" height="17" viewBox="0 0 16 17" fill="none" xmlns="http://www.w3.org/2000/svg">
<path fill-rule="evenodd" clip-rule="evenodd" d="M3.38809 1.67269C3.38809 0.702988 2.90714 0.460564 2.66667 0.460564L2.81847 0.380859C1.24614 0.474705 0 1.77956 0 3.37546V13.3755C0 15.0323 1.34315 16.3755 3 16.3755H13C14.6569 16.3755 16 15.0323 16 13.3755V3.37546C16 1.94766 15.0026 0.752832 13.6665 0.449752C13.6649 0.456874 13.6537 0.460564 13.6323 0.460564C13.0552 0.460564 12.3338 0.460564 12.3338 1.67269C12.3338 2.64238 11.6604 2.88481 11.3238 2.88481H4.39809C4.06142 2.88481 3.38809 2.64238 3.38809 1.67269ZM6.28311 4.52L4.29111 13.88H5.63511L6.03111 12.008C6.07911 11.824 6.11911 11.64 6.15111 11.456C6.18311 11.272 6.21111 11.104 6.23511 10.952C6.26711 10.8 6.28711 10.676 6.29511 10.58H6.33111C6.44311 10.748 6.56311 10.88 6.69111 10.976C6.82711 11.072 7.03511 11.12 7.31511 11.12C7.48311 11.12 7.64711 11.088 7.80711 11.024C7.97511 10.968 8.13511 10.884 8.28711 10.772C8.43911 10.66 8.58311 10.524 8.71911 10.364C8.85511 10.196 8.97911 10.008 9.09111 9.8H9.16311C9.15511 10.16 9.18711 10.436 9.25911 10.628C9.33111 10.82 9.44711 10.948 9.60711 11.012C9.76711 11.084 9.95911 11.12 10.1831 11.12C10.2711 11.12 10.3631 11.112 10.4591 11.096C10.5631 11.08 10.6591 11.06 10.7471 11.036C10.8351 11.012 10.8991 10.988 10.9391 10.964L11.1671 9.932C11.1271 9.94 11.0711 9.952 10.9991 9.968C10.9271 9.984 10.8591 9.992 10.7951 9.992C10.6671 9.992 10.5631 9.944 10.4831 9.848C10.4031 9.744 10.3911 9.564 10.4471 9.308L11.4671 4.52H10.1231L9.53511 7.304C9.42311 7.84 9.26311 8.316 9.05511 8.732C8.84711 9.14 8.60311 9.456 8.32311 9.68C8.05111 9.904 7.75911 10.016 7.44711 10.016C7.19911 10.016 7.01511 9.96 6.89511 9.848C6.78311 9.736 6.71911 9.572 6.70311 9.356C6.69511 9.132 6.72311 8.86 6.78711 8.54L7.63911 4.52H6.28311Z" fill="white"/>
</svg>
